{"asset":{"version":"2.0","generator":"THREE.GLTFExporter r175"},"scenes":[{"name":"AuxScene","nodes":[6]}],"scene":0,"nodes":[{"mesh":0},{"mesh":1},{"matrix":[0.28816805818996966,0,-0.2881680581899697,0,0,-0.40753117613497436,0,0,0.2881680581899697,0,0.28816805818996966,0,0,0,0,1],"children":[0,1]},{"children":[2]},{"matrix":[1,0,0,0,0,1,0,0,0,0,1,0,-35.930432703514555,34.92881858423662,34.7777605394593,1],"children":[3]},{"children":[4]},{"children":[5]}],"bufferViews":[{"buffer":0,"byteOffset":0,"byteLength":145440,"target":34962,"byteStride":12},{"buffer":0,"byteOffset":145440,"byteLength":96960,"target":34962,"byteStride":8},{"buffer":0,"byteOffset":242400,"byteLength":145440,"target":34962,"byteStride":12},{"buffer":0,"byteOffset":387840,"byteLength":324072,"target":34962,"byteStride":12},{"buffer":0,"byteOffset":711912,"byteLength":216048,"target":34962,"byteStride":8},{"buffer":0,"byteOffset":927960,"byteLength":324072,"target":34962,"byteStride":12}],"buffers":[{"byteLength":1252032,"uri":"data:application/octet-stream;base64,"}],"accessors":[{"bufferView":0,"componentType":5126,"count":12120,"max":[76.13062286376953,169.07379150390625,4.599999904632568],"min":[2.3427553176879883,50.82463455200195,-0.6000000238418579],"type":"VEC3"},{"bufferView":1,"componentType":5126,"count":12120,"max":[168.61911010742188,168.7733154296875],"min":[2.642874240875244,-3.5999999046325684],"type":"VEC2"},{"bufferView":2,"componentType":5126,"count":12120,"max":[0.9999946355819702,0.9999857544898987,1],"min":[-0.9999851584434509,-0.9999548196792603,-1],"type":"VEC3"},{"bufferView":3,"componentType":5126,"count":27006,"max":[243.02877807617188,160.19659423828125,4.599999904632568],"min":[73.9381103515625,2.342878580093384,-0.6000000238418579],"type":"VEC3"},{"bufferView":4,"componentType":5126,"count":27006,"max":[242.72840881347656,159.89657592773438],"min":[14.109757423400879,-3.5999999046325684],"type":"VEC2"},{"bufferView":5,"componentType":5126,"count":27006,"max":[0.9999985098838806,0.9999997615814209,1],"min":[-1,-0.999999463558197,-1],"type":"VEC3"}],"materials":[{"pbrMetallicRoughness":{"baseColorFactor":[0.6375968739867731,0.6653872982754769,0.7083757798856457,1],"metallicFactor":0,"roughnessFactor":0.3},"doubleSided":true,"extensions":{"KHR_materials_transmission":{"transmissionFactor":1},"KHR_materials_volume":{"thicknessFactor":0,"attenuationColor":[1,1,1]}}}],"meshes":[{"primitives":[{"mode":4,"attributes":{"POSITION":0,"TEXCOORD_0":1,"NORMAL":2},"material":0}]},{"primitives":[{"mode":4,"attributes":{"POSITION":3,"TEXCOORD_0":4,"NORMAL":5},"material":0}]}],"extensionsUsed":["KHR_materials_transmission","KHR_materials_volume"]}