<svg width="908" height="628" viewBox="0 0 908 628" fill="none" xmlns="http://www.w3.org/2000/svg">
<g filter="url(#filter0_ii_7_10)">
<path d="M253.303 624.453C249.398 622.635 242.279 617.391 237.484 612.799C211.489 587.91 196.889 551.833 189.122 493.297C185.169 463.504 185.678 443.431 191.742 389.846C193.149 377.412 194.058 366.997 193.762 366.701C193.466 366.405 191.54 367.354 189.481 368.809C183.002 373.389 164.825 381.97 153.793 385.658C121.345 396.505 83.5976 395.025 56.5708 381.845C30.1401 368.957 10.1215 345.457 3.14088 319.122C-2.1031 299.343 -0.653705 268.674 6.54028 247.195C17.2663 215.172 38.9648 196.29 74.8272 187.775C106.026 180.366 152.257 182.108 181.075 191.777C218.333 204.278 237.479 230.221 242.521 275.049C244.506 292.684 242.319 354.017 237.695 410.455C231.811 482.253 231.966 495.534 239.101 531.197C244.01 555.731 249.338 570.254 262.055 593.758C278.182 623.565 277.456 621.907 275.765 625.067C273.62 629.074 262.583 628.773 253.303 624.453ZM141.465 345.912C170.954 337.169 189.706 322.165 195.859 302.388C202.136 282.218 196.186 257.261 181.978 244.162C168.263 231.519 150.674 226.472 120.4 226.493C87.7142 226.516 69.8764 232.135 56.448 246.643C47.4117 256.403 43.672 265.834 42.7736 281.126C41.1392 308.95 51.9652 330.61 73.0443 341.684C86.2202 348.608 95.8653 350.524 114.403 349.902C125.895 349.516 132.674 348.518 141.465 345.912ZM471.063 593.533C452.719 591.156 430.233 584.429 415.063 576.78C392.532 565.42 365.718 541.363 351.27 519.544C314.193 463.552 298.403 391.448 298.399 278.125L298.398 250.459L286.065 250.44C279.282 250.429 272.966 249.933 272.029 249.339C270.741 248.522 270.417 243.252 270.696 227.694L271.065 207.128L298.179 206.371L298.9 201.416C299.296 198.691 299.992 193.162 300.447 189.129C300.902 185.095 302.78 174.943 304.621 166.567C321.392 90.2604 369.283 42.9757 439.055 33.8257C494.757 26.5238 540.783 40.8623 576.895 76.7715C581.574 81.4229 585.513 85.0564 585.648 84.8459C607.704 50.6707 626.228 33.3283 658.652 16.506C683.829 3.44201 704.799 -1.16664 732.635 0.244224C780.853 2.68813 821.421 20.3123 854.363 53.13C881.981 80.6421 902.88 116.235 906.667 142.215C908.717 156.282 906.589 163.382 899.251 166.966C894.844 169.118 893.382 169.25 888.879 167.901C882.404 165.961 877.633 159.744 869.795 143.037C856.106 113.854 828.218 80.3852 804.233 64.3566C790.485 55.1684 778.398 49.6999 762.399 45.428C751.548 42.5312 746.733 42.0263 729.051 41.9309C705.005 41.8013 697.972 43.2836 678.837 52.513C646.03 68.3391 621.726 95.7877 616.975 122.38C615.441 130.963 615.559 133.449 618.167 147.515C619.759 156.101 621.06 166.686 621.057 171.038C621.05 186.015 613.917 194.458 601.272 194.458C588.418 194.458 583.6 188.796 579.638 169.032C574.402 142.913 564.385 123.399 547.592 106.607C524.677 83.6923 499.366 73.1208 467.445 73.1333C418.645 73.1522 382.937 92.6242 363.522 129.802C354.534 147.012 349.248 165.442 342.968 201.453L342.097 206.447L661.717 207.125L662.087 227.69C662.366 243.249 662.041 248.518 660.753 249.336C659.817 249.93 654.199 250.426 648.27 250.437L637.489 250.456L630.462 269.455C609.949 324.919 588.835 353.661 550.179 378.727C543.061 383.343 537.216 387.42 537.192 387.786C537.165 388.153 541.952 391.344 547.826 394.878C563.146 404.095 580.548 419.076 589.256 430.543C604.333 450.399 610.49 468.141 610.507 491.785C610.545 544.282 579.032 582.643 527.907 592.337C517.543 594.302 482.652 595.036 471.057 593.533L471.063 593.533ZM521.73 548.407C540.97 543.1 555.37 532.258 562.548 517.675C566.094 510.471 566.869 507.144 567.41 496.78C567.971 486.036 567.624 483.217 564.706 474.832C562.866 469.54 558.605 461.35 555.238 456.632C543.768 440.559 520.747 421.989 503.429 414.843C493.382 410.696 487.968 410.509 444.394 412.798C427.528 413.685 352.883 414.455 352.883 414.455L353.731 417.455C368.915 471.176 393.906 510.69 426.81 533.008C438.36 540.842 455.633 547.605 471.498 550.507C481.101 552.264 512.497 550.95 521.723 548.406L521.73 548.407ZM448.413 370.372C475.501 368.569 485.746 366.574 501.748 359.984C536.135 345.825 555.205 328.407 573.493 294.46C579.451 283.399 590.439 259.454 592.307 253.461L593.242 250.461H341.066L341.1 270.794C341.134 291.425 342.9 336.979 344.533 359.459L345.43 371.792C345.43 371.792 436.692 371.154 448.409 370.375L448.413 370.372Z" fill="black"/>
</g>
<defs>
<filter id="filter0_ii_7_10" x="-6" y="-6" width="919.407" height="639.892" filterUnits="userSpaceOnUse" color-interpolation-filters="sRGB">
<feFlood flood-opacity="0" result="BackgroundImageFix"/>
<feBlend mode="normal" in="SourceGraphic" in2="BackgroundImageFix" result="shape"/>
<feColorMatrix in="SourceAlpha" type="matrix" values="0 0 0 0 0 0 0 0 0 0 0 0 0 0 0 0 0 0 127 0" result="hardAlpha"/>
<feOffset dx="6" dy="6"/>
<feGaussianBlur stdDeviation="4"/>
<feComposite in2="hardAlpha" operator="arithmetic" k2="-1" k3="1"/>
<feColorMatrix type="matrix" values="0 0 0 0 0.721569 0 0 0 0 0.72549 0 0 0 0 0.745098 0 0 0 0.6 0"/>
<feBlend mode="normal" in2="shape" result="effect1_innerShadow_7_10"/>
<feColorMatrix in="SourceAlpha" type="matrix" values="0 0 0 0 0 0 0 0 0 0 0 0 0 0 0 0 0 0 127 0" result="hardAlpha"/>
<feOffset dx="-6" dy="-6"/>
<feGaussianBlur stdDeviation="4"/>
<feComposite in2="hardAlpha" operator="arithmetic" k2="-1" k3="1"/>
<feColorMatrix type="matrix" values="0 0 0 0 1 0 0 0 0 1 0 0 0 0 1 0 0 0 1 0"/>
<feBlend mode="normal" in2="effect1_innerShadow_7_10" result="effect2_innerShadow_7_10"/>
</filter>
</defs>
</svg>
