<svg width="936" height="656" viewBox="0 0 936 656" fill="none" xmlns="http://www.w3.org/2000/svg">
<g filter="url(#filter0_dd_8_43)">
<path d="M267.303 638.453C263.398 636.635 256.279 631.391 251.484 626.799C225.489 601.91 210.889 565.833 203.122 507.297C199.169 477.504 199.678 457.431 205.742 403.846C207.149 391.412 208.058 380.997 207.762 380.701C207.466 380.405 205.54 381.354 203.481 382.809C197.002 387.389 178.825 395.97 167.793 399.658C135.345 410.505 97.5976 409.025 70.5708 395.845C44.1401 382.957 24.1215 359.457 17.1409 333.122C11.8969 313.343 13.3463 282.674 20.5403 261.195C31.2663 229.172 52.9648 210.29 88.8272 201.775C120.026 194.366 166.257 196.108 195.075 205.777C232.333 218.278 251.479 244.221 256.521 289.049C258.506 306.684 256.319 368.017 251.695 424.455C245.811 496.253 245.966 509.534 253.101 545.197C258.01 569.731 263.338 584.254 276.055 607.758C292.182 637.565 291.456 635.907 289.765 639.067C287.62 643.074 276.583 642.773 267.303 638.453ZM155.465 359.912C184.954 351.169 203.706 336.165 209.859 316.388C216.136 296.218 210.186 271.261 195.978 258.162C182.263 245.519 164.674 240.472 134.4 240.493C101.714 240.516 83.8764 246.135 70.448 260.643C61.4117 270.403 57.672 279.834 56.7736 295.126C55.1392 322.95 65.9652 344.61 87.0443 355.684C100.22 362.608 109.865 364.524 128.403 363.902C139.895 363.516 146.674 362.518 155.465 359.912ZM485.063 607.533C466.719 605.156 444.233 598.429 429.063 590.78C406.532 579.42 379.718 555.363 365.27 533.544C328.193 477.552 312.403 405.448 312.399 292.125L312.398 264.459L300.065 264.44C293.282 264.429 286.966 263.933 286.029 263.339C284.741 262.522 284.417 257.252 284.696 241.694L285.065 221.128L312.179 220.371L312.9 215.416C313.296 212.691 313.992 207.162 314.447 203.129C314.902 199.095 316.78 188.943 318.621 180.567C335.392 104.26 383.283 56.9757 453.055 47.8257C508.757 40.5238 554.783 54.8623 590.895 90.7715C595.574 95.4229 599.513 99.0564 599.648 98.8459C621.704 64.6707 640.228 47.3283 672.652 30.506C697.829 17.442 718.799 12.8334 746.635 14.2442C794.853 16.6881 835.421 34.3123 868.363 67.13C895.981 94.6421 916.88 130.235 920.667 156.215C922.717 170.282 920.589 177.382 913.251 180.966C908.844 183.118 907.382 183.25 902.879 181.901C896.404 179.961 891.633 173.744 883.795 157.037C870.106 127.854 842.218 94.3852 818.233 78.3566C804.485 69.1684 792.398 63.6999 776.399 59.428C765.548 56.5312 760.733 56.0263 743.051 55.9309C719.005 55.8013 711.972 57.2836 692.837 66.513C660.03 82.3391 635.726 109.788 630.975 136.38C629.441 144.963 629.559 147.449 632.167 161.515C633.759 170.101 635.06 180.686 635.057 185.038C635.05 200.015 627.917 208.458 615.272 208.458C602.418 208.458 597.6 202.796 593.638 183.032C588.402 156.913 578.385 137.399 561.592 120.607C538.677 97.6923 513.366 87.1208 481.445 87.1333C432.645 87.1522 396.937 106.624 377.522 143.802C368.534 161.012 363.248 179.442 356.968 215.453L356.097 220.447L675.717 221.125L676.087 241.69C676.366 257.249 676.041 262.518 674.753 263.336C673.817 263.93 668.199 264.426 662.27 264.437L651.489 264.456L644.462 283.455C623.949 338.919 602.835 367.661 564.179 392.727C557.061 397.343 551.216 401.42 551.192 401.786C551.165 402.153 555.952 405.344 561.826 408.878C577.146 418.095 594.548 433.076 603.256 444.543C618.333 464.399 624.49 482.141 624.507 505.785C624.545 558.282 593.032 596.643 541.907 606.337C531.543 608.302 496.652 609.036 485.057 607.533L485.063 607.533ZM535.73 562.407C554.97 557.1 569.37 546.258 576.548 531.675C580.094 524.471 580.869 521.144 581.41 510.78C581.971 500.036 581.624 497.217 578.706 488.832C576.866 483.54 572.605 475.35 569.238 470.632C557.768 454.559 534.747 435.989 517.429 428.843C507.382 424.696 501.968 424.509 458.394 426.798C441.528 427.685 366.883 428.455 366.883 428.455L367.731 431.455C382.915 485.176 407.906 524.69 440.81 547.008C452.36 554.842 469.633 561.605 485.498 564.507C495.101 566.264 526.497 564.95 535.723 562.406L535.73 562.407ZM462.413 384.372C489.501 382.569 499.746 380.574 515.748 373.984C550.135 359.825 569.205 342.407 587.493 308.46C593.451 297.399 604.439 273.454 606.307 267.461L607.242 264.461H355.066L355.1 284.794C355.134 305.425 356.9 350.979 358.533 373.459L359.43 385.792C359.43 385.792 450.692 385.154 462.409 384.375L462.413 384.372Z" fill="black"/>
</g>
<defs>
<filter id="filter0_dd_8_43" x="0" y="0" width="935.407" height="655.892" filterUnits="userSpaceOnUse" color-interpolation-filters="sRGB">
<feFlood flood-opacity="0" result="BackgroundImageFix"/>
<feColorMatrix in="SourceAlpha" type="matrix" values="0 0 0 0 0 0 0 0 0 0 0 0 0 0 0 0 0 0 127 0" result="hardAlpha"/>
<feOffset dx="6" dy="6"/>
<feGaussianBlur stdDeviation="4"/>
<feComposite in2="hardAlpha" operator="out"/>
<feColorMatrix type="matrix" values="0 0 0 0 0.721569 0 0 0 0 0.72549 0 0 0 0 0.745098 0 0 0 0.6 0"/>
<feBlend mode="normal" in2="BackgroundImageFix" result="effect1_dropShadow_8_43"/>
<feColorMatrix in="SourceAlpha" type="matrix" values="0 0 0 0 0 0 0 0 0 0 0 0 0 0 0 0 0 0 127 0" result="hardAlpha"/>
<feOffset dx="-6" dy="-6"/>
<feGaussianBlur stdDeviation="4"/>
<feComposite in2="hardAlpha" operator="out"/>
<feColorMatrix type="matrix" values="0 0 0 0 1 0 0 0 0 1 0 0 0 0 1 0 0 0 1 0"/>
<feBlend mode="normal" in2="effect1_dropShadow_8_43" result="effect2_dropShadow_8_43"/>
<feBlend mode="normal" in="SourceGraphic" in2="effect2_dropShadow_8_43" result="shape"/>
</filter>
</defs>
</svg>
